<svg xmlns="http://www.w3.org/2000/svg" xmlns:xlink="http://www.w3.org/1999/xlink" version="1.1" id="Layer_1" x="0px" y="0px" enable-background="new 0 0 1200 1200" xml:space="preserve" viewBox="315.36 519.91 558.76 182.1"><path fill="#FFFFFF" opacity="1.000000" stroke="none" d=" M462.999695,588.033569   C460.365448,593.235840 461.255035,597.993591 463.001404,602.798462   C465.401245,609.401367 467.700470,616.040955 470.515686,624.002136   C473.181427,616.093018 475.537109,609.448853 477.659729,602.731140   C481.520325,590.512817 485.213593,578.241699 489.030060,566.009338   C493.317963,552.266052 497.814606,538.585327 501.886078,524.778809   C502.970062,521.102966 504.548187,519.834167 508.375610,519.912109   C520.200500,520.152832 532.033752,519.955383 543.862915,520.042725   C545.901123,520.057800 547.935303,520.633545 550.467773,521.027527   C542.620361,540.779785 534.954773,559.927185 527.405518,579.120300   C520.786316,595.949097 514.327026,612.840881 507.742096,629.683289   C502.207520,643.839172 496.647369,657.985840 490.923279,672.065308   C490.415955,673.313232 488.630219,674.844971 487.407806,674.872070   C477.249207,675.097412 467.080688,675.111816 456.923065,674.864563   C455.585785,674.832031 453.638458,673.237366 453.079681,671.903015   C446.403015,655.959045 439.937836,639.926514 433.394958,623.926331   C433.284485,623.656128 432.895630,623.499817 432.323120,623.036804   C425.461029,640.341309 418.644104,657.531921 411.717346,674.999512   C400.619446,674.999512 389.477692,675.097229 378.342682,674.867493   C377.049591,674.840820 375.217682,673.263611 374.619598,671.955383   C371.891907,665.988953 369.435913,659.893372 367.030884,653.785583   C362.925507,643.359802 358.956390,632.880371 354.883820,622.441528   C350.292267,610.672363 345.641479,598.926331 341.031128,587.164490   C333.678162,568.405762 326.328033,549.645996 319.000488,530.877319   C317.780243,527.751709 316.680786,524.578918 315.356842,520.968079   C317.056732,520.657715 318.856171,520.056519 320.659698,520.044006   C332.822144,519.959595 344.987976,520.139893 357.147156,519.923645   C361.359070,519.848694 362.935638,521.676025 364.082611,525.477722   C368.660797,540.652466 373.622284,555.711121 378.358124,570.838867   C383.282471,586.568726 388.105530,602.330322 392.988617,618.073120   C393.404694,619.414673 393.939270,620.719360 395.535614,622.246643   C397.359009,616.947693 398.675354,611.401001 401.116547,606.403809   C405.526611,597.376465 403.130707,589.094666 399.970551,580.481201   C396.337433,570.578613 393.335968,560.445679 389.978241,550.440247   C387.381470,542.702393 384.639099,535.013428 382.005829,527.287659   C381.383820,525.462646 380.939941,523.576904 380.246490,521.127014   C381.975067,520.750061 383.691528,520.069458 385.415192,520.050720   C395.077850,519.945496 404.742737,520.057007 414.405762,519.971375   C418.150299,519.938232 420.120209,521.180481 421.152405,525.187500   C424.710327,538.999023 428.759308,552.683960 432.663696,566.567993   C436.768372,552.235901 440.797607,537.853638 445.117767,523.559204   C445.557922,522.102844 447.719543,520.193848 449.125854,520.156921   C459.948547,519.873535 470.782074,519.973083 481.612000,520.018066   C484.726105,520.031006 485.445831,521.194763 484.333801,524.427673   C480.014679,536.984436 476.139740,549.693054 471.934387,562.290039   C469.100281,570.779602 465.989166,579.176697 462.999695,588.033569  z"></path><path fill="#FFFFFF" opacity="1.000000" stroke="none" d=" M831.000000,520.000000   C843.495789,520.000000 855.491638,519.992371 867.487427,520.003052   C873.998657,520.008850 873.999329,520.022888 873.999817,526.652954   C874.000488,535.483215 873.760010,544.322693 874.099365,553.139893   C874.273987,557.677490 873.090149,559.196838 868.305969,559.115723   C850.983643,558.822021 833.653320,559.000000 816.326050,559.000000   C814.698181,559.000000 813.070312,559.000000 811.223694,559.000000   C811.223694,566.747559 811.223694,574.150940 811.223694,581.950806   C828.081177,581.950806 844.818970,581.950806 861.998901,581.950806   C861.998901,593.117371 862.043701,603.895386 861.974060,614.672546   C861.950317,618.349365 859.001953,617.962280 856.660095,617.971924   C842.831848,618.028870 829.003174,618.000000 815.174683,618.000000   C814.014282,618.000000 812.853821,618.000000 811.237976,618.000000   C811.156067,619.492004 811.011597,620.913452 811.010132,622.334961   C810.993958,637.996155 810.805298,653.661255 811.116699,669.316284   C811.212280,674.119202 809.645935,675.226868 805.130249,675.100281   C794.142700,674.792297 783.137878,674.858948 772.146057,675.076904   C768.330566,675.152466 766.902710,674.222961 766.914124,670.095459   C767.048035,621.779358 767.055176,573.462524 766.907898,525.146545   C766.894348,520.698792 768.908569,519.965088 772.520203,519.974976   C791.846680,520.027893 811.173401,520.000000 831.000000,520.000000  z"></path><path fill="#6c3eb8" opacity="1.000000" stroke="none" d=" M684.000000,685.024780   C684.000000,689.518372 683.795593,693.531982 684.063171,697.513916   C684.286072,700.829590 682.619690,701.960632 679.812195,701.974670   C668.312744,702.032104 656.812805,702.013184 645.313049,701.989441   C642.129883,701.982849 640.799133,700.563354 640.922180,697.140686   C641.179199,689.992310 641.000000,682.828186 641.000000,675.270203   C622.811646,675.270203 604.736450,675.270203 586.000000,675.270203   C586.000000,666.798279 586.962097,658.564819 585.772522,650.655029   C584.026550,639.045837 589.810486,631.169800 596.356445,623.065369   C607.797058,608.900818 618.994385,594.539795 630.293884,580.261292   C637.963440,570.569641 645.594910,560.847107 653.372559,551.243042   C654.035645,550.424255 655.670837,550.065857 656.860535,550.052734   C665.683472,549.955627 674.507935,550.000122 683.772461,550.000122   C683.772461,578.856201 683.772461,607.594116 683.772461,636.019287   C689.407471,636.019287 694.621826,635.783813 699.783875,636.199036   C700.949402,636.292786 702.824646,638.629639 702.858154,639.971741   C703.115784,650.298462 702.922119,660.635376 703.048157,670.966919   C703.085083,673.999390 702.031311,675.155090 698.979004,675.045654   C694.176086,674.873474 689.362427,674.999878 684.000000,674.999878   C684.000000,678.316101 684.000000,681.423645 684.000000,685.024780  M643.561157,616.958496   C638.596191,623.333984 633.631226,629.709412 628.500610,636.297607   C634.756958,636.297607 640.222839,636.297607 645.998230,636.297607   C645.998230,629.948730 646.008911,623.345154 645.918152,616.742920   C645.916382,616.616455 644.717407,616.506409 643.561157,616.958496  z"></path></svg>