<?xml version="1.0" standalone="no"?>
<!DOCTYPE svg PUBLIC "-//W3C//DTD SVG 20010904//EN"
 "http://www.w3.org/TR/2001/REC-SVG-20010904/DTD/svg10.dtd">
<svg version="1.0" xmlns="http://www.w3.org/2000/svg"
 width="500.000000pt" height="500.000000pt" viewBox="0 0 500.000000 500.000000"
 preserveAspectRatio="xMidYMid meet">

<g transform="translate(0.000000,500.000000) scale(0.100000,-0.100000)"
fill="#000000" stroke="none">
<path d="M760 2500 l0 -480 1605 0 1605 0 0 480 0 480 -1605 0 -1605 0 0 -480z
m3180 0 l0 -450 -1580 0 -1580 0 0 450 0 450 1580 0 1580 0 0 -450z"/>
<path d="M850 2500 l0 -390 820 0 820 0 0 390 0 390 -820 0 -820 0 0 -390z
m1028 115 c12 -14 22 -33 22 -41 0 -22 -31 -17 -37 6 -9 35 -86 44 -110 13
-20 -26 2 -50 60 -67 63 -18 87 -41 87 -84 0 -41 -31 -62 -93 -62 -38 0 -53 5
-72 25 -26 25 -33 55 -14 55 6 0 20 -11 31 -25 35 -45 126 -28 116 22 -2 12
-25 25 -68 40 -66 23 -90 43 -90 74 0 32 13 51 44 65 43 20 96 10 124 -21z
m-520 13 c-3 -7 -23 -14 -46 -16 l-42 -3 0 -115 c0 -107 -1 -114 -20 -114 -19
0 -20 7 -20 115 l0 115 -40 0 c-29 0 -40 4 -40 15 0 12 18 15 106 15 80 0 105
-3 102 -12z m222 -76 c19 -48 43 -106 52 -129 17 -42 17 -43 -1 -43 -12 0 -23
11 -30 30 -10 29 -12 30 -75 30 -62 0 -64 -1 -75 -30 -5 -16 -17 -30 -25 -30
-22 0 -21 5 27 121 24 57 46 112 50 122 3 9 14 17 24 17 13 0 27 -23 53 -88z
m450 33 c0 -52 1 -55 26 -55 40 0 60 16 78 65 16 41 46 63 46 33 -1 -20 -37
-95 -49 -103 -8 -4 0 -27 25 -72 19 -35 33 -67 30 -70 -12 -13 -36 9 -62 59
-25 45 -34 53 -61 56 l-33 3 0 -60 c0 -54 -2 -61 -20 -61 -19 0 -20 7 -20 130
0 123 1 130 20 130 18 0 20 -7 20 -55z"/>
<path d="M1502 2535 c-12 -31 -22 -59 -22 -61 0 -2 22 -4 49 -4 l50 0 -21 53
c-12 28 -24 56 -28 60 -4 4 -17 -17 -28 -48z"/>
<path d="M2850 2500 l0 -130 40 0 40 0 0 50 0 50 40 0 40 0 0 -50 0 -50 35 0
35 0 0 130 0 130 -35 0 c-35 0 -35 0 -35 -45 l0 -45 -40 0 -40 0 0 45 0 45
-40 0 -40 0 0 -130z"/>
<path d="M3140 2531 c0 -113 14 -143 75 -160 46 -12 98 2 125 36 17 22 20 40
20 124 l0 99 -35 0 -35 0 0 -79 c0 -98 -5 -111 -40 -111 -35 0 -40 13 -40 111
l0 79 -35 0 -35 0 0 -99z"/>
<path d="M3420 2500 l0 -130 84 0 c69 0 88 4 110 21 29 23 34 63 12 95 -10 13
-11 25 -5 35 5 8 9 28 9 46 0 49 -28 63 -127 63 l-83 0 0 -130z m130 65 c17
-20 4 -35 -31 -35 -24 0 -29 4 -29 25 0 20 5 25 24 25 13 0 29 -7 36 -15z m-6
-91 c9 -3 16 -15 16 -25 0 -15 -7 -19 -35 -19 -27 0 -35 4 -35 18 0 31 19 40
54 26z"/>
</g>
</svg>
